<?xml version="1.0" encoding="UTF-8" standalone="no"?>
<svg
   xmlns:dc="http://purl.org/dc/elements/1.1/"
   xmlns:cc="http://creativecommons.org/ns#"
   xmlns:rdf="http://www.w3.org/1999/02/22-rdf-syntax-ns#"
   xmlns:svg="http://www.w3.org/2000/svg"
   xmlns="http://www.w3.org/2000/svg"
   xmlns:sodipodi="http://sodipodi.sourceforge.net/DTD/sodipodi-0.dtd"
   xmlns:inkscape="http://www.inkscape.org/namespaces/inkscape"
   width="96.328621mm"
   height="31.361591mm"
   viewBox="0 0 96.328621 31.361591"
   version="1.1"
   id="svg760"
   inkscape:version="1.0.2 (e86c870879, 2021-01-15, custom)"
   sodipodi:docname="Logo.svg">
  <defs
     id="defs754">
    <clipPath
       clipPathUnits="userSpaceOnUse"
       id="clipPath26">
      <path
         d="M 0,0 H 841.89 V 595.276 H 0 Z"
         id="path24" />
    </clipPath>
    <clipPath
       clipPathUnits="userSpaceOnUse"
       id="clipPath56">
      <path
         d="M 0,0 H 841.89 V 595.276 H 0 Z"
         id="path54" />
    </clipPath>
    <clipPath
       clipPathUnits="userSpaceOnUse"
       id="clipPath72">
      <path
         d="m 461.956,450.715 v -53.309 l 30.596,-17.734 v 17.751 l -15.575,9 v 35.357 l 15.625,8.951 -0.068,17.621 z"
         id="path70" />
    </clipPath>
    <linearGradient
       x1="0"
       y1="0"
       x2="1"
       y2="0"
       gradientUnits="userSpaceOnUse"
       gradientTransform="matrix(-21.463598,22.974203,22.974203,21.463598,458.67578,397.98721)"
       spreadMethod="pad"
       id="linearGradient84">
      <stop
         style="stop-opacity:1;stop-color:#ef4a26"
         offset="0"
         id="stop78" />
      <stop
         style="stop-opacity:1;stop-color:#f14a26"
         offset="0.540456"
         id="stop80" />
      <stop
         style="stop-opacity:1;stop-color:#f46e44"
         offset="1"
         id="stop82" />
    </linearGradient>
    <clipPath
       clipPathUnits="userSpaceOnUse"
       id="clipPath94">
      <path
         d="m 495.708,468.451 0.082,-17.663 15.44,-8.932 15.104,9.013 z"
         id="path92" />
    </clipPath>
    <linearGradient
       x1="0"
       y1="0"
       x2="1"
       y2="0"
       gradientUnits="userSpaceOnUse"
       gradientTransform="matrix(16.988777,-1.6544245,-1.6544245,-16.988777,509.01953,469.16412)"
       spreadMethod="pad"
       id="linearGradient110">
      <stop
         style="stop-opacity:1;stop-color:#d8d3cf"
         offset="0"
         id="stop100" />
      <stop
         style="stop-opacity:1;stop-color:#d8d3cf"
         offset="0.404519"
         id="stop102" />
      <stop
         style="stop-opacity:1;stop-color:#989792"
         offset="0.961857"
         id="stop104" />
      <stop
         style="stop-opacity:1;stop-color:#989792"
         offset="0.96467961"
         id="stop106" />
      <stop
         style="stop-opacity:1;stop-color:#989792"
         offset="1"
         id="stop108" />
    </linearGradient>
    <clipPath
       clipPathUnits="userSpaceOnUse"
       id="clipPath120">
      <path
         d="m 495.726,415.123 15.504,-8.804 15.125,8.972 -15.123,8.793 -15.506,8.775 z"
         id="path118" />
    </clipPath>
    <linearGradient
       x1="0"
       y1="0"
       x2="1"
       y2="0"
       gradientUnits="userSpaceOnUse"
       gradientTransform="matrix(16.874336,0,0,-16.874336,509.48047,434.85983)"
       spreadMethod="pad"
       id="linearGradient132">
      <stop
         style="stop-opacity:1;stop-color:#d8d3cf"
         offset="0"
         id="stop126" />
      <stop
         style="stop-opacity:1;stop-color:#d8d3cf"
         offset="0.449066"
         id="stop128" />
      <stop
         style="stop-opacity:1;stop-color:#989792"
         offset="1"
         id="stop130" />
    </linearGradient>
    <clipPath
       clipPathUnits="userSpaceOnUse"
       id="clipPath142">
      <path
         d="m 495.758,397.427 v -17.875 l 30.574,17.712 0.023,18.027 z"
         id="path140" />
    </clipPath>
    <linearGradient
       x1="0"
       y1="0"
       x2="1"
       y2="0"
       gradientUnits="userSpaceOnUse"
       gradientTransform="matrix(30.535408,0,0,-30.535408,496.65698,417.29099)"
       spreadMethod="pad"
       id="linearGradient154">
      <stop
         style="stop-opacity:1;stop-color:#1e4354"
         offset="0"
         id="stop148" />
      <stop
         style="stop-opacity:1;stop-color:#1e4354"
         offset="0.00492698"
         id="stop150" />
      <stop
         style="stop-opacity:1;stop-color:#277ca1"
         offset="1"
         id="stop152" />
    </linearGradient>
    <clipPath
       clipPathUnits="userSpaceOnUse"
       id="clipPath164">
      <path
         d="m 511.23,441.856 -15.504,-8.997 15.506,-8.775 15.102,8.943 v 17.842 z"
         id="path162" />
    </clipPath>
    <linearGradient
       x1="0"
       y1="0"
       x2="1"
       y2="0"
       gradientUnits="userSpaceOnUse"
       gradientTransform="matrix(31.752779,-0.8073067,-0.8073067,-31.752779,496.29443,453.63342)"
       spreadMethod="pad"
       id="linearGradient176">
      <stop
         style="stop-opacity:1;stop-color:#1e4354"
         offset="0"
         id="stop170" />
      <stop
         style="stop-opacity:1;stop-color:#1e4354"
         offset="0.00492698"
         id="stop172" />
      <stop
         style="stop-opacity:1;stop-color:#277ca1"
         offset="1"
         id="stop174" />
    </linearGradient>
  </defs>
  <sodipodi:namedview
     id="base"
     pagecolor="#ffffff"
     bordercolor="#666666"
     borderopacity="1.0"
     inkscape:pageopacity="0.0"
     inkscape:pageshadow="2"
     inkscape:zoom="0.35"
     inkscape:cx="204.89547"
     inkscape:cy="402.12312"
     inkscape:document-units="mm"
     inkscape:current-layer="layer1"
     inkscape:document-rotation="0"
     showgrid="false"
     fit-margin-top="0"
     fit-margin-left="0"
     fit-margin-right="0"
     fit-margin-bottom="0"
     inkscape:window-width="1920"
     inkscape:window-height="1017"
     inkscape:window-x="-8"
     inkscape:window-y="-8"
     inkscape:window-maximized="1" />
  <metadata
     id="metadata757">
    <rdf:RDF>
      <cc:Work
         rdf:about="">
        <dc:format>image/svg+xml</dc:format>
        <dc:type
           rdf:resource="http://purl.org/dc/dcmitype/StillImage" />
        <dc:title></dc:title>
      </cc:Work>
    </rdf:RDF>
  </metadata>
  <g
     inkscape:label="Ebene 1"
     inkscape:groupmode="layer"
     id="layer1"
     transform="translate(-51.621408,-41.771591)">
    <g
       id="g20"
       transform="matrix(0.35277777,0,0,-0.35277777,-111.3464,207.03069)">
      <g
         id="g22"
         clip-path="url(#clipPath26)">
        <g
           id="g28"
           transform="translate(541.3982,435.5248)">
          <path
             d="m 0,0 h 6.766 c 5.295,0 8.273,-2.721 8.273,-7.023 0,-3.494 -2.538,-4.964 -2.905,-5.038 0.367,-0.073 4.302,-1.214 4.302,-6.325 0,-4.485 -3.309,-7.353 -8.383,-7.353 H 0 Z m 7.281,-11.105 c 2.904,0 4.67,1.581 4.67,4.082 0,2.5 -1.766,4.081 -4.67,4.081 H 3.089 v -8.163 z m 6.066,-7.281 c 0,2.427 -1.618,4.413 -5.294,4.413 H 3.089 v -8.824 h 4.964 c 3.676,0 5.294,1.985 5.294,4.411"
             style="fill:#ef4a26;fill-opacity:1;fill-rule:nonzero;stroke:none"
             id="path30" />
        </g>
      </g>
    </g>
    <path
       d="m 88.55936,53.387146 h 1.08973 v 9.08015 h -1.08973 z"
       style="fill:#ef4a26;fill-opacity:1;fill-rule:nonzero;stroke:none;stroke-width:0.352778"
       id="path32" />
    <g
       id="g34"
       transform="matrix(0.35277777,0,0,-0.35277777,99.5081,53.387216)">
      <path
         d="m 0,0 -14.45,-22.797 h 13.752 v -2.942 h -19.011 l 14.45,22.797 H -18.716 V 0 Z"
         style="fill:#ef4a26;fill-opacity:1;fill-rule:nonzero;stroke:none"
         id="path36" />
    </g>
    <g
       id="g38"
       transform="matrix(0.35277777,0,0,-0.35277777,108.35559,53.387216)">
      <path
         d="m 0,0 -14.45,-22.797 h 13.752 v -2.942 H -19.709 L -5.258,-2.942 H -18.716 V 0 Z"
         style="fill:#ef4a26;fill-opacity:1;fill-rule:nonzero;stroke:none"
         id="path40" />
    </g>
    <g
       id="g42"
       transform="matrix(0.35277777,0,0,-0.35277777,112.1701,53.387216)">
      <path
         d="M 0,0 8.862,-14.378 17.686,0 h 2.979 v -25.739 h -3.088 v 20.15 L 8.788,-19.893 0,-5.626 V -25.739 H -3.089 V 0 Z"
         style="fill:#1e4354;fill-opacity:1;fill-rule:nonzero;stroke:none"
         id="path44" />
    </g>
    <g
       id="g46"
       transform="matrix(0.35277777,0,0,-0.35277777,125.62363,53.387216)">
      <path
         d="M 0,0 H 2.868 L 12.907,-25.739 H 9.671 l -2.684,6.95 H -4.118 l -2.684,-6.95 h -3.31 z M -2.978,-15.848 H 5.847 L 1.435,-4.413 Z"
         style="fill:#1e4354;fill-opacity:1;fill-rule:nonzero;stroke:none"
         id="path48" />
    </g>
    <g
       id="g50"
       transform="matrix(0.35277777,0,0,-0.35277777,-111.3464,207.03069)">
      <g
         id="g52"
         clip-path="url(#clipPath56)">
        <g
           id="g58"
           transform="translate(691.9895,435.5248)">
          <path
             d="m 0,0 h 6.692 c 5.111,0 8.604,-3.016 8.604,-7.612 0,-6.103 -5.552,-7.244 -6.287,-7.353 l 7.133,-10.774 h -3.713 l -6.95,10.516 H 3.089 V -25.739 H 0 Z m 12.208,-7.612 c 0,2.832 -1.875,4.67 -5.332,4.67 H 3.089 v -9.339 h 3.787 c 3.457,0 5.332,1.838 5.332,4.669"
             style="fill:#1e4354;fill-opacity:1;fill-rule:nonzero;stroke:none"
             id="path60" />
        </g>
      </g>
    </g>
    <g
       id="g62"
       transform="matrix(0.35277777,0,0,-0.35277777,142.46292,57.655126)">
      <path
         d="m 0,0 10.406,12.098 h 3.935 L 3.457,-0.477 15.554,-13.641 H 11.362 L 0,-1.36 V -13.641 H -3.089 V 12.098 H 0 Z"
         style="fill:#1e4354;fill-opacity:1;fill-rule:nonzero;stroke:none"
         id="path64" />
    </g>
    <g
       id="g66"
       transform="matrix(0.35277777,0,0,-0.35277777,-111.3464,207.03069)">
      <g
         id="g68"
         clip-path="url(#clipPath72)">
        <g
           id="g74">
          <g
             id="g76">
            <path
               d="m 461.956,450.715 v -53.309 l 30.596,-17.734 v 17.751 l -15.575,9 v 35.357 l 15.625,8.951 -0.068,17.621 z"
               style="fill:url(#linearGradient84);stroke:none"
               id="path86" />
          </g>
        </g>
      </g>
    </g>
    <g
       id="g88"
       transform="matrix(0.35277777,0,0,-0.35277777,-111.3464,207.03069)">
      <g
         id="g90"
         clip-path="url(#clipPath94)">
        <g
           id="g96">
          <g
             id="g98">
            <path
               d="m 495.708,468.451 0.082,-17.663 15.44,-8.932 15.104,9.013 z"
               style="fill:url(#linearGradient110);stroke:none"
               id="path112" />
          </g>
        </g>
      </g>
    </g>
    <g
       id="g114"
       transform="matrix(0.35277777,0,0,-0.35277777,-111.3464,207.03069)">
      <g
         id="g116"
         clip-path="url(#clipPath120)">
        <g
           id="g122">
          <g
             id="g124">
            <path
               d="m 495.726,415.123 15.504,-8.804 15.125,8.972 -15.123,8.793 -15.506,8.775 z"
               style="fill:url(#linearGradient132);stroke:none"
               id="path134" />
          </g>
        </g>
      </g>
    </g>
    <g
       id="g136"
       transform="matrix(0.35277777,0,0,-0.35277777,-111.3464,207.03069)">
      <g
         id="g138"
         clip-path="url(#clipPath142)">
        <g
           id="g144">
          <g
             id="g146">
            <path
               d="m 495.758,397.427 v -17.875 l 30.574,17.712 0.023,18.027 z"
               style="fill:url(#linearGradient154);stroke:none"
               id="path156" />
          </g>
        </g>
      </g>
    </g>
    <g
       id="g158"
       transform="matrix(0.35277777,0,0,-0.35277777,-111.3464,207.03069)">
      <g
         id="g160"
         clip-path="url(#clipPath164)">
        <g
           id="g166">
          <g
             id="g168">
            <path
               d="m 511.23,441.856 -15.504,-8.997 15.506,-8.775 15.102,8.943 v 17.842 z"
               style="fill:url(#linearGradient176);stroke:none"
               id="path178" />
          </g>
        </g>
      </g>
    </g>
  </g>
</svg>
